<?xml version="1.0" encoding="UTF-8"?>
<svg width="128" height="128" viewBox="0 0 128 128" fill="none" xmlns="http://www.w3.org/2000/svg">
  <rect width="128" height="128" fill="#5F57FF"/>
  <path fill-rule="evenodd" clip-rule="evenodd" d="M96.7053 73.0698L84.7422 74.7338V85.2191C84.4847 88.0886 82.3311 90.7779 78.6868 92.8079C74.7795 94.9844 69.5296 96.1932 64.0056 96.1932C58.4817 96.1932 53.2262 94.9844 49.3244 92.8079C45.4171 90.6314 43.247 87.707 43.247 84.63C43.247 81.553 45.4171 78.6255 49.3244 76.4521C53.2317 74.2756 58.4817 73.0667 64.0056 73.0667H96.7053V58.9473L84.7422 60.7514V66.4029H63.8247C55.1826 66.4396 46.9734 68.3383 40.8631 71.7419C34.709 75.17 31.2783 79.7825 31.2783 84.63C31.2783 89.4775 34.709 94.09 40.8631 97.5181C47.0173 100.946 55.2976 102.857 64 102.857C72.7024 102.857 80.9829 100.946 87.1371 97.5181C93.2913 94.09 96.7219 89.4775 96.7219 84.63C96.7219 82.0047 96.7055 79.3734 96.7 76.739V76.6841C96.7 75.4783 96.6944 74.2695 96.6944 73.0667H96.7053V73.0698Z" fill="#3752EB"/>
  <path fill-rule="evenodd" clip-rule="evenodd" d="M96.7051 49.3992L84.7486 52.3848V71.198C84.4912 76.3465 82.3388 81.1718 78.6965 84.8141C74.7914 88.7192 69.5443 90.8881 64.0234 90.8881C58.5025 90.8881 53.2499 88.7192 49.3503 84.8141C45.4451 80.9089 43.2763 75.6618 43.2763 70.1409C43.2763 64.62 45.4451 59.3675 49.3503 55.4679C53.2554 51.5627 58.5025 49.3938 64.0234 49.3938H96.7051L96.7051 24.0601L84.7486 27.2971V37.4373H63.8426C55.2052 37.503 47.0006 40.9098 40.8937 47.0167C34.7429 53.1675 31.3141 61.4433 31.3141 70.1409C31.3141 78.8386 34.7429 87.1144 40.8937 93.2652C47.0444 99.416 55.3202 102.845 64.0178 102.845C72.7154 102.845 80.9914 99.416 87.1421 93.2652C93.2929 87.1144 96.7217 78.8386 96.7217 70.1409C96.7217 65.4307 96.7052 60.7094 96.6998 55.9827V55.8841C96.6998 53.7207 96.6941 51.5517 96.6941 49.3938H96.7051V49.3992Z" fill="white" fill-opacity="0.6"/>
</svg>
