<?xml version="1.0" encoding="UTF-8"?>
<svg width="200" height="200" viewBox="0 0 200 200" fill="none" xmlns="http://www.w3.org/2000/svg">
  <rect width="200" height="200" rx="40" fill="#2196F3"/>
  <path d="M60 100C60 77.9086 77.9086 60 100 60C122.091 60 140 77.9086 140 100C140 122.091 122.091 140 100 140C77.9086 140 60 122.091 60 100Z" fill="white"/>
  <path d="M100 80C88.9543 80 80 88.9543 80 100C80 111.046 88.9543 120 100 120C111.046 120 120 111.046 120 100C120 88.9543 111.046 80 100 80Z" fill="#2196F3"/>
  <path d="M100 90C94.4772 90 90 94.4772 90 100C90 105.523 94.4772 110 100 110C105.523 110 110 105.523 110 100C110 94.4772 105.523 90 100 90Z" fill="white"/>
</svg> 